<svg id="Layer_1" enable-background="new 0 0 512 512" height="512" viewBox="0 0 512 512" width="512" xmlns="http://www.w3.org/2000/svg"><g><circle cx="256" cy="256" fill="#383c6b" r="256"/><path d="m43.093 398.178c101.479 151.66 324.275 151.75 425.814 0z" fill="#293059"/><path d="m270.084 398.178h-226.991c48.802 72.935 133.084 118.219 226.137 113.481-64.885-8.994-62.952-105.449.854-113.481z" fill="#192449"/><path d="m190.93 224.222h-56.45c-2.74 0-4.96 2.221-4.96 4.96v168.995h66.37v-168.995c0-2.739-2.221-4.96-4.96-4.96z" fill="#fe505f"/><path d="m306.532 159.982h-56.45c-2.739 0-4.96 2.221-4.96 4.96v233.235h66.37v-233.234c0-2.74-2.221-4.961-4.96-4.961z" fill="#ffcd38"/><path d="m422.134 95.743h-56.45c-2.74 0-4.96 2.22-4.96 4.96v297.475h66.37v-297.475c0-2.74-2.221-4.96-4.96-4.96z" fill="#5bb5e7"/><path d="m167.665 224.222h-33.185c-2.74 0-4.96 2.22-4.96 4.96v168.995h33.185v-168.995c0-2.739 2.22-4.96 4.96-4.96z" fill="#de3648"/><path d="m283.266 159.982h-33.185c-2.739 0-4.96 2.221-4.96 4.96v233.235h33.185v-233.234c0-2.74 2.221-4.961 4.96-4.961z" fill="#ffac00"/><path d="m398.868 95.743h-33.185c-2.74 0-4.96 2.22-4.96 4.96v297.475h33.185v-297.475c0-2.74 2.221-4.96 4.96-4.96z" fill="#4796cd"/><g fill="#7c81b9"><path d="m218.082 425.832c-5.091 0-9.218-4.126-9.218-9.218v-18.436c0-5.092 4.127-9.218 9.218-9.218s9.218 4.126 9.218 9.218v18.436c0 5.091-4.127 9.218-9.218 9.218z"/><path d="m337.302 425.832c-5.091 0-9.218-4.126-9.218-9.218v-18.436c0-5.092 4.127-9.218 9.218-9.218s9.218 4.126 9.218 9.218v18.436c0 5.091-4.127 9.218-9.218 9.218z"/><path d="m85.342 274.655h-18.437c-5.091 0-9.218-4.127-9.218-9.218 0-5.092 4.127-9.218 9.218-9.218h18.436c5.091 0 9.218 4.126 9.218 9.218.001 5.091-4.126 9.218-9.217 9.218z"/><path d="m85.342 155.434h-18.437c-5.091 0-9.218-4.127-9.218-9.218s4.127-9.218 9.218-9.218h18.436c5.091 0 9.218 4.126 9.218 9.218s-4.126 9.218-9.217 9.218z"/></g><path d="m190.93 287.561h-56.45c-2.74 0-4.96 2.22-4.96 4.96v105.657h66.37v-105.657c0-2.74-2.221-4.96-4.96-4.96z" fill="#de3648"/><path d="m134.48 287.561c-2.74 0-4.96 2.22-4.96 4.96v105.657h33.185v-110.617z" fill="#cc2137"/><path d="m306.532 324.433h-56.45c-2.739 0-4.96 2.22-4.96 4.96v68.785h66.37v-68.785c0-2.739-2.221-4.96-4.96-4.96z" fill="#ffac00"/><path d="m250.082 324.433c-2.739 0-4.96 2.22-4.96 4.96v68.785h33.185v-73.745z" fill="#ff8500"/><path d="m422.134 225.509h-56.45c-2.74 0-4.96 2.221-4.96 4.961v167.708h66.37v-167.708c0-2.741-2.221-4.961-4.96-4.961z" fill="#4796cd"/><path d="m365.684 225.509c-2.74 0-4.96 2.22-4.96 4.96v167.709h33.185v-172.669z" fill="#0f7ebc"/><path d="m215.669 38.662c-5.109 0-9.218-4.148-9.218-9.218 0-5.927 5.493-10.147 11.012-9.033 4.448.923 7.424 4.714 7.424 9.033 0 5.004-4.037 9.218-9.218 9.218z" fill="#4796cd"/><path d="m215.669 75.314c-4.959 0-9.218-4.017-9.218-9.218 0-5.915 5.486-10.186 11.012-9.034 4.108.769 7.424 4.494 7.424 9.034 0 5.239-4.3 9.218-9.218 9.218z" fill="#ff8500"/><path d="m307.761 40.466h-58.908c-5.091 0-9.218-4.127-9.218-9.218s4.127-9.218 9.218-9.218h58.908c5.091 0 9.218 4.127 9.218 9.218s-4.127 9.218-9.218 9.218z" fill="#5bb5e7"/><path d="m307.761 76.212h-58.908c-5.091 0-9.218-4.127-9.218-9.218s4.127-9.218 9.218-9.218h58.908c5.091 0 9.218 4.127 9.218 9.218 0 5.09-4.127 9.218-9.218 9.218z" fill="#ffcd38"/><path d="m215.669 111.953c-5.065 0-9.218-4.1-9.218-9.218 0-4.309 2.979-8.106 7.411-9.034 5.557-1.114 11.025 3.119 11.025 9.034 0 5.077-4.12 9.218-9.218 9.218z" fill="#de3648"/><path d="m307.761 111.957h-58.908c-5.091 0-9.218-4.127-9.218-9.218 0-5.092 4.127-9.218 9.218-9.218h58.908c5.091 0 9.218 4.126 9.218 9.218s-4.127 9.218-9.218 9.218z" fill="#fe505f"/><path d="m278.306 31.248c0-5.091 4.127-9.218 9.218-9.218h-38.672c-5.091 0-9.218 4.127-9.218 9.218s4.127 9.218 9.218 9.218h38.672c-5.09 0-9.218-4.127-9.218-9.218z" fill="#4796cd"/><path d="m278.306 66.993c0-5.091 4.127-9.218 9.218-9.218h-38.672c-5.091 0-9.218 4.127-9.218 9.218s4.127 9.218 9.218 9.218h38.672c-5.09.001-9.218-4.127-9.218-9.218z" fill="#ff8500"/><path d="m278.306 102.739c0-5.092 4.127-9.218 9.218-9.218h-38.672c-5.091 0-9.218 4.126-9.218 9.218s4.127 9.218 9.218 9.218h38.672c-5.09 0-9.218-4.126-9.218-9.218z" fill="#de3648"/><path d="m474.804 388.959h-380.244v-357.486l17.815 17.815c3.599 3.6 9.436 3.6 13.036 0s3.6-9.436 0-13.036l-33.551-33.552c-3.596-3.597-9.438-3.6-13.036 0l-33.552 33.552c-3.6 3.6-3.6 9.437 0 13.036 3.6 3.6 9.437 3.6 13.036 0l17.816-17.816v357.487h-9.218c-5.091 0-9.218 4.127-9.218 9.218 0 5.092 4.127 9.218 9.218 9.218h9.218v9.218c0 5.092 4.127 9.218 9.218 9.218s9.218-4.126 9.218-9.218v-9.218h367.875c4.377-5.957 8.512-12.101 12.369-18.436z" fill="#7c81b9"/><path d="m238.787 398.177c0-4.211 2.639-7.797 6.35-9.218h-150.577v-357.486l17.815 17.815c3.599 3.6 9.436 3.6 13.036 0s3.6-9.436 0-13.036l-33.551-33.552c-3.596-3.597-9.438-3.6-13.036 0l-33.552 33.552c-3.6 3.6-3.6 9.437 0 13.036 3.6 3.6 9.437 3.6 13.036 0l17.816-17.816v357.487h-9.218c-5.091 0-9.218 4.127-9.218 9.218 0 5.092 4.127 9.218 9.218 9.218h9.218v9.218c0 5.092 4.127 9.218 9.218 9.218s9.218-4.126 9.218-9.218v-9.218h150.577c-3.711-1.421-6.35-5.007-6.35-9.218z" fill="#64679c"/></g></svg>